<svg width="336" height="144" viewBox="0 0 336 144" fill="none" xmlns="http://www.w3.org/2000/svg">
<g clip-path="url(#clip0_63_36373)">
<rect width="336" height="144" fill="white"/>
<rect y="5" width="2" height="2" rx="1" fill="#D8DDE2"/>
<rect x="11.928" y="5" width="2" height="2" rx="1" fill="#D8DDE2"/>
<rect x="23.8562" y="5" width="2" height="2" rx="1" fill="#D8DDE2"/>
<rect x="35.7842" y="5" width="2" height="2" rx="1" fill="#D8DDE2"/>
<rect x="47.7124" y="5" width="2" height="2" rx="1" fill="#D8DDE2"/>
<rect x="59.6404" y="5" width="2" height="2" rx="1" fill="#D8DDE2"/>
<rect x="71.5686" y="5" width="2" height="2" rx="1" fill="#D8DDE2"/>
<rect x="83.4966" y="5" width="2" height="2" rx="1" fill="#D8DDE2"/>
<rect x="95.4248" y="5" width="2.01333" height="2.01333" rx="1.00667" fill="#D8DDE2"/>
<rect x="107.366" y="5" width="2" height="2" rx="1" fill="#D8DDE2"/>
<rect x="119.294" y="5" width="2" height="2" rx="1" fill="#D8DDE2"/>
<rect x="131.222" y="5" width="2" height="2" rx="1" fill="#D8DDE2"/>
<rect x="143.15" y="5" width="2" height="2" rx="1" fill="#D8DDE2"/>
<rect x="155.079" y="5" width="2" height="2" rx="1" fill="#D8DDE2"/>
<rect x="167.007" y="5" width="2" height="2" rx="1" fill="#D8DDE2"/>
<rect x="178.935" y="5" width="2" height="2" rx="1" fill="#D8DDE2"/>
<rect x="190.863" y="5" width="2" height="2" rx="1" fill="#D8DDE2"/>
<rect x="202.791" y="5" width="2" height="2" rx="1" fill="#D8DDE2"/>
<rect x="214.719" y="5" width="2" height="2" rx="1" fill="#D8DDE2"/>
<rect x="226.647" y="5" width="2" height="2" rx="1" fill="#D8DDE2"/>
<rect x="238.575" y="5" width="2" height="2" rx="1" fill="#D8DDE2"/>
<rect x="250.503" y="5" width="2" height="2" rx="1" fill="#D8DDE2"/>
<rect x="262.431" y="5" width="2" height="2" rx="1" fill="#D8DDE2"/>
<rect x="274.36" y="5" width="2" height="2" rx="1" fill="#D8DDE2"/>
<rect x="286.288" y="5" width="2" height="2" rx="1" fill="#D8DDE2"/>
<rect x="298.216" y="5" width="2" height="2" rx="1" fill="#D8DDE2"/>
<rect x="310.144" y="5" width="2" height="2" rx="1" fill="#D8DDE2"/>
<rect x="322.072" y="5" width="2" height="2" rx="1" fill="#D8DDE2"/>
<rect x="334" y="5" width="2" height="2" rx="1" fill="#D8DDE2"/>
<rect y="17.0132" width="2" height="2" rx="1" fill="#D8DDE2"/>
<rect x="11.928" y="17.0132" width="2" height="2" rx="1" fill="#D8DDE2"/>
<rect x="23.8562" y="17.0132" width="2" height="2" rx="1" fill="#D8DDE2"/>
<rect x="35.7842" y="17.0132" width="2" height="2" rx="1" fill="#D8DDE2"/>
<rect x="47.7124" y="17.0132" width="2" height="2" rx="1" fill="#D8DDE2"/>
<rect x="59.6404" y="17.0132" width="2" height="2" rx="1" fill="#D8DDE2"/>
<rect x="71.5686" y="17.0132" width="2" height="2" rx="1" fill="#D8DDE2"/>
<rect x="83.4966" y="17.0132" width="2" height="2" rx="1" fill="#D8DDE2"/>
<rect x="95.4248" y="17.0132" width="2.01333" height="2.01333" rx="1.00667" fill="#D8DDE2"/>
<rect x="107.366" y="17.0132" width="2" height="2" rx="1" fill="#D8DDE2"/>
<rect x="119.294" y="17.0132" width="2" height="2" rx="1" fill="#D8DDE2"/>
<rect x="131.222" y="17.0132" width="2" height="2" rx="1" fill="#D8DDE2"/>
<rect x="143.15" y="17.0132" width="2" height="2" rx="1" fill="#D8DDE2"/>
<rect x="155.079" y="17.0132" width="2" height="2" rx="1" fill="#D8DDE2"/>
<rect x="167.007" y="17.0132" width="2" height="2" rx="1" fill="#D8DDE2"/>
<rect x="178.935" y="17.0132" width="2" height="2" rx="1" fill="#D8DDE2"/>
<rect x="190.863" y="17.0132" width="2" height="2" rx="1" fill="#D8DDE2"/>
<rect x="202.791" y="17.0132" width="2" height="2" rx="1" fill="#D8DDE2"/>
<rect x="214.719" y="17.0132" width="2" height="2" rx="1" fill="#D8DDE2"/>
<rect x="226.647" y="17.0132" width="2" height="2" rx="1" fill="#D8DDE2"/>
<rect x="238.575" y="17.0132" width="2" height="2" rx="1" fill="#D8DDE2"/>
<rect x="250.503" y="17.0132" width="2" height="2" rx="1" fill="#D8DDE2"/>
<rect x="262.431" y="17.0132" width="2" height="2" rx="1" fill="#D8DDE2"/>
<rect x="274.36" y="17.0132" width="2" height="2" rx="1" fill="#D8DDE2"/>
<rect x="286.288" y="17.0132" width="2" height="2" rx="1" fill="#D8DDE2"/>
<rect x="298.216" y="17.0132" width="2" height="2" rx="1" fill="#D8DDE2"/>
<rect x="310.144" y="17.0132" width="2" height="2" rx="1" fill="#D8DDE2"/>
<rect x="322.072" y="17.0132" width="2" height="2" rx="1" fill="#D8DDE2"/>
<rect x="334" y="17.0132" width="2" height="2" rx="1" fill="#D8DDE2"/>
<rect y="29.0269" width="2" height="2" rx="1" fill="#D8DDE2"/>
<rect x="11.928" y="29.0269" width="2" height="2" rx="1" fill="#D8DDE2"/>
<rect x="23.8562" y="29.0269" width="2" height="2" rx="1" fill="#D8DDE2"/>
<rect x="35.7842" y="29.0269" width="2" height="2" rx="1" fill="#D8DDE2"/>
<rect x="47.7124" y="29.0269" width="2" height="2" rx="1" fill="#D8DDE2"/>
<rect x="59.6404" y="29.0269" width="2" height="2" rx="1" fill="#D8DDE2"/>
<rect x="71.5686" y="29.0269" width="2" height="2" rx="1" fill="#D8DDE2"/>
<rect x="83.4966" y="29.0269" width="2" height="2" rx="1" fill="#D8DDE2"/>
<rect x="95.4248" y="29.0269" width="2.01333" height="2.01333" rx="1.00667" fill="#D8DDE2"/>
<rect x="107.366" y="29.0269" width="2" height="2" rx="1" fill="#D8DDE2"/>
<rect x="119.294" y="29.0269" width="2" height="2" rx="1" fill="#D8DDE2"/>
<rect x="131.222" y="29.0269" width="2" height="2" rx="1" fill="#D8DDE2"/>
<rect x="143.15" y="29.0269" width="2" height="2" rx="1" fill="#D8DDE2"/>
<rect x="155.079" y="29.0269" width="2" height="2" rx="1" fill="#D8DDE2"/>
<rect x="167.007" y="29.0269" width="2" height="2" rx="1" fill="#D8DDE2"/>
<rect x="178.935" y="29.0269" width="2" height="2" rx="1" fill="#D8DDE2"/>
<rect x="190.863" y="29.0269" width="2" height="2" rx="1" fill="#D8DDE2"/>
<rect x="202.791" y="29.0269" width="2" height="2" rx="1" fill="#D8DDE2"/>
<rect x="214.719" y="29.0269" width="2" height="2" rx="1" fill="#D8DDE2"/>
<rect x="226.647" y="29.0269" width="2" height="2" rx="1" fill="#D8DDE2"/>
<rect x="238.575" y="29.0269" width="2" height="2" rx="1" fill="#D8DDE2"/>
<rect x="250.503" y="29.0269" width="2" height="2" rx="1" fill="#D8DDE2"/>
<rect x="262.431" y="29.0269" width="2" height="2" rx="1" fill="#D8DDE2"/>
<rect x="274.36" y="29.0269" width="2" height="2" rx="1" fill="#D8DDE2"/>
<rect x="286.288" y="29.0269" width="2" height="2" rx="1" fill="#D8DDE2"/>
<rect x="298.216" y="29.0269" width="2" height="2" rx="1" fill="#D8DDE2"/>
<rect x="310.144" y="29.0269" width="2" height="2" rx="1" fill="#D8DDE2"/>
<rect x="322.072" y="29.0269" width="2" height="2" rx="1" fill="#D8DDE2"/>
<rect x="334" y="29.0269" width="2" height="2" rx="1" fill="#D8DDE2"/>
<rect y="41.04" width="2" height="2" rx="1" fill="#D8DDE2"/>
<rect x="11.928" y="41.04" width="2" height="2" rx="1" fill="#D8DDE2"/>
<rect x="23.8562" y="41.04" width="2" height="2" rx="1" fill="#D8DDE2"/>
<rect x="35.7842" y="41.04" width="2" height="2" rx="1" fill="#D8DDE2"/>
<rect x="47.7124" y="41.04" width="2" height="2" rx="1" fill="#D8DDE2"/>
<rect x="59.6404" y="41.04" width="2" height="2" rx="1" fill="#D8DDE2"/>
<rect x="71.5686" y="41.04" width="2" height="2" rx="1" fill="#D8DDE2"/>
<rect x="83.4966" y="41.04" width="2" height="2" rx="1" fill="#D8DDE2"/>
<rect x="95.4248" y="41.04" width="2.01333" height="2.01333" rx="1.00667" fill="#D8DDE2"/>
<rect x="107.366" y="41.04" width="2" height="2" rx="1" fill="#D8DDE2"/>
<rect x="119.294" y="41.04" width="2" height="2" rx="1" fill="#D8DDE2"/>
<rect x="131.222" y="41.04" width="2" height="2" rx="1" fill="#D8DDE2"/>
<rect x="143.15" y="41.04" width="2" height="2" rx="1" fill="#D8DDE2"/>
<rect x="155.079" y="41.04" width="2" height="2" rx="1" fill="#D8DDE2"/>
<rect x="167.007" y="41.04" width="2" height="2" rx="1" fill="#D8DDE2"/>
<rect x="178.935" y="41.04" width="2" height="2" rx="1" fill="#D8DDE2"/>
<rect x="190.863" y="41.04" width="2" height="2" rx="1" fill="#D8DDE2"/>
<rect x="202.791" y="41.04" width="2" height="2" rx="1" fill="#D8DDE2"/>
<rect x="214.719" y="41.04" width="2" height="2" rx="1" fill="#D8DDE2"/>
<rect x="226.647" y="41.04" width="2" height="2" rx="1" fill="#D8DDE2"/>
<rect x="238.575" y="41.04" width="2" height="2" rx="1" fill="#D8DDE2"/>
<rect x="250.503" y="41.04" width="2" height="2" rx="1" fill="#D8DDE2"/>
<rect x="262.431" y="41.04" width="2" height="2" rx="1" fill="#D8DDE2"/>
<rect x="274.36" y="41.04" width="2" height="2" rx="1" fill="#D8DDE2"/>
<rect x="286.288" y="41.04" width="2" height="2" rx="1" fill="#D8DDE2"/>
<rect x="298.216" y="41.04" width="2" height="2" rx="1" fill="#D8DDE2"/>
<rect x="310.144" y="41.04" width="2" height="2" rx="1" fill="#D8DDE2"/>
<rect x="322.072" y="41.04" width="2" height="2" rx="1" fill="#D8DDE2"/>
<rect x="334" y="41.04" width="2" height="2" rx="1" fill="#D8DDE2"/>
<rect y="53.0532" width="2" height="2" rx="1" fill="#D8DDE2"/>
<rect x="11.928" y="53.0532" width="2" height="2" rx="1" fill="#D8DDE2"/>
<rect x="23.8562" y="53.0532" width="2" height="2" rx="1" fill="#D8DDE2"/>
<rect x="35.7842" y="53.0532" width="2" height="2" rx="1" fill="#D8DDE2"/>
<rect x="47.7124" y="53.0532" width="2" height="2" rx="1" fill="#D8DDE2"/>
<rect x="59.6404" y="53.0532" width="2" height="2" rx="1" fill="#D8DDE2"/>
<rect x="71.5686" y="53.0532" width="2" height="2" rx="1" fill="#D8DDE2"/>
<rect x="83.4966" y="53.0532" width="2" height="2" rx="1" fill="#D8DDE2"/>
<rect x="95.4248" y="53.0532" width="2.01333" height="2.01333" rx="1.00667" fill="#D8DDE2"/>
<rect x="107.366" y="53.0532" width="2" height="2" rx="1" fill="#D8DDE2"/>
<rect x="119.294" y="53.0532" width="2" height="2" rx="1" fill="#D8DDE2"/>
<rect x="131.222" y="53.0532" width="2" height="2" rx="1" fill="#D8DDE2"/>
<rect x="143.15" y="53.0532" width="2" height="2" rx="1" fill="#D8DDE2"/>
<rect x="155.079" y="53.0532" width="2" height="2" rx="1" fill="#D8DDE2"/>
<rect x="167.007" y="53.0532" width="2" height="2" rx="1" fill="#D8DDE2"/>
<rect x="178.935" y="53.0532" width="2" height="2" rx="1" fill="#D8DDE2"/>
<rect x="190.863" y="53.0532" width="2" height="2" rx="1" fill="#D8DDE2"/>
<rect x="202.791" y="53.0532" width="2" height="2" rx="1" fill="#D8DDE2"/>
<rect x="214.719" y="53.0532" width="2" height="2" rx="1" fill="#D8DDE2"/>
<rect x="226.647" y="53.0532" width="2" height="2" rx="1" fill="#D8DDE2"/>
<rect x="238.575" y="53.0532" width="2" height="2" rx="1" fill="#D8DDE2"/>
<rect x="250.503" y="53.0532" width="2" height="2" rx="1" fill="#D8DDE2"/>
<rect x="262.431" y="53.0532" width="2" height="2" rx="1" fill="#D8DDE2"/>
<rect x="274.36" y="53.0532" width="2" height="2" rx="1" fill="#D8DDE2"/>
<rect x="286.288" y="53.0532" width="2" height="2" rx="1" fill="#D8DDE2"/>
<rect x="298.216" y="53.0532" width="2" height="2" rx="1" fill="#D8DDE2"/>
<rect x="310.144" y="53.0532" width="2" height="2" rx="1" fill="#D8DDE2"/>
<rect x="322.072" y="53.0532" width="2" height="2" rx="1" fill="#D8DDE2"/>
<rect x="334" y="53.0532" width="2" height="2" rx="1" fill="#D8DDE2"/>
<rect y="65.0669" width="2" height="2" rx="1" fill="#D8DDE2"/>
<rect x="11.928" y="65.0669" width="2" height="2" rx="1" fill="#D8DDE2"/>
<rect x="23.8562" y="65.0669" width="2" height="2" rx="1" fill="#D8DDE2"/>
<rect x="35.7842" y="65.0669" width="2" height="2" rx="1" fill="#D8DDE2"/>
<rect x="47.7124" y="65.0669" width="2" height="2" rx="1" fill="#D8DDE2"/>
<rect x="59.6404" y="65.0669" width="2" height="2" rx="1" fill="#D8DDE2"/>
<rect x="71.5686" y="65.0669" width="2" height="2" rx="1" fill="#D8DDE2"/>
<rect x="83.4966" y="65.0669" width="2" height="2" rx="1" fill="#D8DDE2"/>
<rect x="95.4248" y="65.0669" width="2.01333" height="2.01333" rx="1.00667" fill="#D8DDE2"/>
<rect x="107.366" y="65.0669" width="2" height="2" rx="1" fill="#D8DDE2"/>
<rect x="119.294" y="65.0669" width="2" height="2" rx="1" fill="#D8DDE2"/>
<rect x="131.222" y="65.0669" width="2" height="2" rx="1" fill="#D8DDE2"/>
<rect x="143.15" y="65.0669" width="2" height="2" rx="1" fill="#D8DDE2"/>
<rect x="155.079" y="65.0669" width="2" height="2" rx="1" fill="#D8DDE2"/>
<rect x="167.007" y="65.0669" width="2" height="2" rx="1" fill="#D8DDE2"/>
<rect x="178.935" y="65.0669" width="2" height="2" rx="1" fill="#D8DDE2"/>
<rect x="190.863" y="65.0669" width="2" height="2" rx="1" fill="#D8DDE2"/>
<rect x="202.791" y="65.0669" width="2" height="2" rx="1" fill="#D8DDE2"/>
<rect x="214.719" y="65.0669" width="2" height="2" rx="1" fill="#D8DDE2"/>
<rect x="226.647" y="65.0669" width="2" height="2" rx="1" fill="#D8DDE2"/>
<rect x="238.575" y="65.0669" width="2" height="2" rx="1" fill="#D8DDE2"/>
<rect x="250.503" y="65.0669" width="2" height="2" rx="1" fill="#D8DDE2"/>
<rect x="262.431" y="65.0669" width="2" height="2" rx="1" fill="#D8DDE2"/>
<rect x="274.36" y="65.0669" width="2" height="2" rx="1" fill="#D8DDE2"/>
<rect x="286.288" y="65.0669" width="2" height="2" rx="1" fill="#D8DDE2"/>
<rect x="298.216" y="65.0669" width="2" height="2" rx="1" fill="#D8DDE2"/>
<rect x="310.144" y="65.0669" width="2" height="2" rx="1" fill="#D8DDE2"/>
<rect x="322.072" y="65.0669" width="2" height="2" rx="1" fill="#D8DDE2"/>
<rect x="334" y="65.0669" width="2" height="2" rx="1" fill="#D8DDE2"/>
<rect y="77.0801" width="2" height="2" rx="1" fill="#D8DDE2"/>
<rect x="11.928" y="77.0801" width="2" height="2" rx="1" fill="#D8DDE2"/>
<rect x="23.8562" y="77.0801" width="2" height="2" rx="1" fill="#D8DDE2"/>
<rect x="35.7842" y="77.0801" width="2" height="2" rx="1" fill="#D8DDE2"/>
<rect x="47.7124" y="77.0801" width="2" height="2" rx="1" fill="#D8DDE2"/>
<rect x="59.6404" y="77.0801" width="2" height="2" rx="1" fill="#D8DDE2"/>
<rect x="71.5686" y="77.0801" width="2" height="2" rx="1" fill="#D8DDE2"/>
<rect x="83.4966" y="77.0801" width="2" height="2" rx="1" fill="#D8DDE2"/>
<rect x="95.4248" y="77.0801" width="2.01333" height="2.01333" rx="1.00667" fill="#D8DDE2"/>
<rect x="107.366" y="77.0801" width="2" height="2" rx="1" fill="#D8DDE2"/>
<rect x="119.294" y="77.0801" width="2" height="2" rx="1" fill="#D8DDE2"/>
<rect x="131.222" y="77.0801" width="2" height="2" rx="1" fill="#D8DDE2"/>
<rect x="143.15" y="77.0801" width="2" height="2" rx="1" fill="#D8DDE2"/>
<rect x="155.079" y="77.0801" width="2" height="2" rx="1" fill="#D8DDE2"/>
<rect x="167.007" y="77.0801" width="2" height="2" rx="1" fill="#D8DDE2"/>
<rect x="178.935" y="77.0801" width="2" height="2" rx="1" fill="#D8DDE2"/>
<rect x="190.863" y="77.0801" width="2" height="2" rx="1" fill="#D8DDE2"/>
<rect x="202.791" y="77.0801" width="2" height="2" rx="1" fill="#D8DDE2"/>
<rect x="214.719" y="77.0801" width="2" height="2" rx="1" fill="#D8DDE2"/>
<rect x="226.647" y="77.0801" width="2" height="2" rx="1" fill="#D8DDE2"/>
<rect x="238.575" y="77.0801" width="2" height="2" rx="1" fill="#D8DDE2"/>
<rect x="250.503" y="77.0801" width="2" height="2" rx="1" fill="#D8DDE2"/>
<rect x="262.431" y="77.0801" width="2" height="2" rx="1" fill="#D8DDE2"/>
<rect x="274.36" y="77.0801" width="2" height="2" rx="1" fill="#D8DDE2"/>
<rect x="286.288" y="77.0801" width="2" height="2" rx="1" fill="#D8DDE2"/>
<rect x="298.216" y="77.0801" width="2" height="2" rx="1" fill="#D8DDE2"/>
<rect x="310.144" y="77.0801" width="2" height="2" rx="1" fill="#D8DDE2"/>
<rect x="322.072" y="77.0801" width="2" height="2" rx="1" fill="#D8DDE2"/>
<rect x="334" y="77.0801" width="2" height="2" rx="1" fill="#D8DDE2"/>
<rect y="89.0933" width="2" height="2" rx="1" fill="#D8DDE2"/>
<rect x="11.928" y="89.0933" width="2" height="2" rx="1" fill="#D8DDE2"/>
<rect x="23.8562" y="89.0933" width="2" height="2" rx="1" fill="#D8DDE2"/>
<rect x="35.7842" y="89.0933" width="2" height="2" rx="1" fill="#D8DDE2"/>
<rect x="47.7124" y="89.0933" width="2" height="2" rx="1" fill="#D8DDE2"/>
<rect x="59.6404" y="89.0933" width="2" height="2" rx="1" fill="#D8DDE2"/>
<rect x="71.5686" y="89.0933" width="2" height="2" rx="1" fill="#D8DDE2"/>
<rect x="83.4966" y="89.0933" width="2" height="2" rx="1" fill="#D8DDE2"/>
<rect x="95.4248" y="89.0933" width="2.01333" height="2.01333" rx="1.00667" fill="#D8DDE2"/>
<rect x="107.366" y="89.0933" width="2" height="2" rx="1" fill="#D8DDE2"/>
<rect x="119.294" y="89.0933" width="2" height="2" rx="1" fill="#D8DDE2"/>
<rect x="131.222" y="89.0933" width="2" height="2" rx="1" fill="#D8DDE2"/>
<rect x="143.15" y="89.0933" width="2" height="2" rx="1" fill="#D8DDE2"/>
<rect x="155.079" y="89.0933" width="2" height="2" rx="1" fill="#D8DDE2"/>
<rect x="167.007" y="89.0933" width="2" height="2" rx="1" fill="#D8DDE2"/>
<rect x="178.935" y="89.0933" width="2" height="2" rx="1" fill="#D8DDE2"/>
<rect x="190.863" y="89.0933" width="2" height="2" rx="1" fill="#D8DDE2"/>
<rect x="202.791" y="89.0933" width="2" height="2" rx="1" fill="#D8DDE2"/>
<rect x="214.719" y="89.0933" width="2" height="2" rx="1" fill="#D8DDE2"/>
<rect x="226.647" y="89.0933" width="2" height="2" rx="1" fill="#D8DDE2"/>
<rect x="238.575" y="89.0933" width="2" height="2" rx="1" fill="#D8DDE2"/>
<rect x="250.503" y="89.0933" width="2" height="2" rx="1" fill="#D8DDE2"/>
<rect x="262.431" y="89.0933" width="2" height="2" rx="1" fill="#D8DDE2"/>
<rect x="274.36" y="89.0933" width="2" height="2" rx="1" fill="#D8DDE2"/>
<rect x="286.288" y="89.0933" width="2" height="2" rx="1" fill="#D8DDE2"/>
<rect x="298.216" y="89.0933" width="2" height="2" rx="1" fill="#D8DDE2"/>
<rect x="310.144" y="89.0933" width="2" height="2" rx="1" fill="#D8DDE2"/>
<rect x="322.072" y="89.0933" width="2" height="2" rx="1" fill="#D8DDE2"/>
<rect x="334" y="89.0933" width="2" height="2" rx="1" fill="#D8DDE2"/>
<rect y="101.106" width="2" height="2" rx="1" fill="#D8DDE2"/>
<rect x="11.928" y="101.106" width="2" height="2" rx="1" fill="#D8DDE2"/>
<rect x="23.8562" y="101.106" width="2" height="2" rx="1" fill="#D8DDE2"/>
<rect x="35.7842" y="101.106" width="2" height="2" rx="1" fill="#D8DDE2"/>
<rect x="47.7124" y="101.106" width="2" height="2" rx="1" fill="#D8DDE2"/>
<rect x="59.6404" y="101.106" width="2" height="2" rx="1" fill="#D8DDE2"/>
<rect x="71.5686" y="101.106" width="2" height="2" rx="1" fill="#D8DDE2"/>
<rect x="83.4966" y="101.106" width="2" height="2" rx="1" fill="#D8DDE2"/>
<rect x="95.4248" y="101.106" width="2.01333" height="2.01333" rx="1.00667" fill="#D8DDE2"/>
<rect x="107.366" y="101.106" width="2" height="2" rx="1" fill="#D8DDE2"/>
<rect x="119.294" y="101.106" width="2" height="2" rx="1" fill="#D8DDE2"/>
<rect x="131.222" y="101.106" width="2" height="2" rx="1" fill="#D8DDE2"/>
<rect x="143.15" y="101.106" width="2" height="2" rx="1" fill="#D8DDE2"/>
<rect x="155.079" y="101.106" width="2" height="2" rx="1" fill="#D8DDE2"/>
<rect x="167.007" y="101.106" width="2" height="2" rx="1" fill="#D8DDE2"/>
<rect x="178.935" y="101.106" width="2" height="2" rx="1" fill="#D8DDE2"/>
<rect x="190.863" y="101.106" width="2" height="2" rx="1" fill="#D8DDE2"/>
<rect x="202.791" y="101.106" width="2" height="2" rx="1" fill="#D8DDE2"/>
<rect x="214.719" y="101.106" width="2" height="2" rx="1" fill="#D8DDE2"/>
<rect x="226.647" y="101.106" width="2" height="2" rx="1" fill="#D8DDE2"/>
<rect x="238.575" y="101.106" width="2" height="2" rx="1" fill="#D8DDE2"/>
<rect x="250.503" y="101.106" width="2" height="2" rx="1" fill="#D8DDE2"/>
<rect x="262.431" y="101.106" width="2" height="2" rx="1" fill="#D8DDE2"/>
<rect x="274.36" y="101.106" width="2" height="2" rx="1" fill="#D8DDE2"/>
<rect x="286.288" y="101.106" width="2" height="2" rx="1" fill="#D8DDE2"/>
<rect x="298.216" y="101.106" width="2" height="2" rx="1" fill="#D8DDE2"/>
<rect x="310.144" y="101.106" width="2" height="2" rx="1" fill="#D8DDE2"/>
<rect x="322.072" y="101.106" width="2" height="2" rx="1" fill="#D8DDE2"/>
<rect x="334" y="101.106" width="2" height="2" rx="1" fill="#D8DDE2"/>
<rect y="113.12" width="2" height="2" rx="1" fill="#D8DDE2"/>
<rect x="11.928" y="113.12" width="2" height="2" rx="1" fill="#D8DDE2"/>
<rect x="23.8562" y="113.12" width="2" height="2" rx="1" fill="#D8DDE2"/>
<rect x="35.7842" y="113.12" width="2" height="2" rx="1" fill="#D8DDE2"/>
<rect x="47.7124" y="113.12" width="2" height="2" rx="1" fill="#D8DDE2"/>
<rect x="59.6404" y="113.12" width="2" height="2" rx="1" fill="#D8DDE2"/>
<rect x="71.5686" y="113.12" width="2" height="2" rx="1" fill="#D8DDE2"/>
<rect x="83.4966" y="113.12" width="2" height="2" rx="1" fill="#D8DDE2"/>
<rect x="95.4248" y="113.12" width="2.01333" height="2.01333" rx="1.00667" fill="#D8DDE2"/>
<rect x="107.366" y="113.12" width="2" height="2" rx="1" fill="#D8DDE2"/>
<rect x="119.294" y="113.12" width="2" height="2" rx="1" fill="#D8DDE2"/>
<rect x="131.222" y="113.12" width="2" height="2" rx="1" fill="#D8DDE2"/>
<rect x="143.15" y="113.12" width="2" height="2" rx="1" fill="#D8DDE2"/>
<rect x="155.079" y="113.12" width="2" height="2" rx="1" fill="#D8DDE2"/>
<rect x="167.007" y="113.12" width="2" height="2" rx="1" fill="#D8DDE2"/>
<rect x="178.935" y="113.12" width="2" height="2" rx="1" fill="#D8DDE2"/>
<rect x="190.863" y="113.12" width="2" height="2" rx="1" fill="#D8DDE2"/>
<rect x="202.791" y="113.12" width="2" height="2" rx="1" fill="#D8DDE2"/>
<rect x="214.719" y="113.12" width="2" height="2" rx="1" fill="#D8DDE2"/>
<rect x="226.647" y="113.12" width="2" height="2" rx="1" fill="#D8DDE2"/>
<rect x="238.575" y="113.12" width="2" height="2" rx="1" fill="#D8DDE2"/>
<rect x="250.503" y="113.12" width="2" height="2" rx="1" fill="#D8DDE2"/>
<rect x="262.431" y="113.12" width="2" height="2" rx="1" fill="#D8DDE2"/>
<rect x="274.36" y="113.12" width="2" height="2" rx="1" fill="#D8DDE2"/>
<rect x="286.288" y="113.12" width="2" height="2" rx="1" fill="#D8DDE2"/>
<rect x="298.216" y="113.12" width="2" height="2" rx="1" fill="#D8DDE2"/>
<rect x="310.144" y="113.12" width="2" height="2" rx="1" fill="#D8DDE2"/>
<rect x="322.072" y="113.12" width="2" height="2" rx="1" fill="#D8DDE2"/>
<rect x="334" y="113.12" width="2" height="2" rx="1" fill="#D8DDE2"/>
<rect y="125.133" width="2" height="2" rx="1" fill="#D8DDE2"/>
<rect x="11.928" y="125.133" width="2" height="2" rx="1" fill="#D8DDE2"/>
<rect x="23.8562" y="125.133" width="2" height="2" rx="1" fill="#D8DDE2"/>
<rect x="35.7842" y="125.133" width="2" height="2" rx="1" fill="#D8DDE2"/>
<rect x="47.7124" y="125.133" width="2" height="2" rx="1" fill="#D8DDE2"/>
<rect x="59.6404" y="125.133" width="2" height="2" rx="1" fill="#D8DDE2"/>
<rect x="71.5686" y="125.133" width="2" height="2" rx="1" fill="#D8DDE2"/>
<rect x="83.4966" y="125.133" width="2" height="2" rx="1" fill="#D8DDE2"/>
<rect x="95.4248" y="125.133" width="2.01333" height="2.01333" rx="1.00667" fill="#D8DDE2"/>
<rect x="107.366" y="125.133" width="2" height="2" rx="1" fill="#D8DDE2"/>
<rect x="119.294" y="125.133" width="2" height="2" rx="1" fill="#D8DDE2"/>
<rect x="131.222" y="125.133" width="2" height="2" rx="1" fill="#D8DDE2"/>
<rect x="143.15" y="125.133" width="2" height="2" rx="1" fill="#D8DDE2"/>
<rect x="155.079" y="125.133" width="2" height="2" rx="1" fill="#D8DDE2"/>
<rect x="167.007" y="125.133" width="2" height="2" rx="1" fill="#D8DDE2"/>
<rect x="178.935" y="125.133" width="2" height="2" rx="1" fill="#D8DDE2"/>
<rect x="190.863" y="125.133" width="2" height="2" rx="1" fill="#D8DDE2"/>
<rect x="202.791" y="125.133" width="2" height="2" rx="1" fill="#D8DDE2"/>
<rect x="214.719" y="125.133" width="2" height="2" rx="1" fill="#D8DDE2"/>
<rect x="226.647" y="125.133" width="2" height="2" rx="1" fill="#D8DDE2"/>
<rect x="238.575" y="125.133" width="2" height="2" rx="1" fill="#D8DDE2"/>
<rect x="250.503" y="125.133" width="2" height="2" rx="1" fill="#D8DDE2"/>
<rect x="262.431" y="125.133" width="2" height="2" rx="1" fill="#D8DDE2"/>
<rect x="274.36" y="125.133" width="2" height="2" rx="1" fill="#D8DDE2"/>
<rect x="286.288" y="125.133" width="2" height="2" rx="1" fill="#D8DDE2"/>
<rect x="298.216" y="125.133" width="2" height="2" rx="1" fill="#D8DDE2"/>
<rect x="310.144" y="125.133" width="2" height="2" rx="1" fill="#D8DDE2"/>
<rect x="322.072" y="125.133" width="2" height="2" rx="1" fill="#D8DDE2"/>
<rect x="334" y="125.133" width="2" height="2" rx="1" fill="#D8DDE2"/>
<rect y="137.146" width="2" height="2" rx="1" fill="#D8DDE2"/>
<rect x="11.928" y="137.146" width="2" height="2" rx="1" fill="#D8DDE2"/>
<rect x="23.8562" y="137.146" width="2" height="2" rx="1" fill="#D8DDE2"/>
<rect x="35.7842" y="137.146" width="2" height="2" rx="1" fill="#D8DDE2"/>
<rect x="47.7124" y="137.146" width="2" height="2" rx="1" fill="#D8DDE2"/>
<rect x="59.6404" y="137.146" width="2" height="2" rx="1" fill="#D8DDE2"/>
<rect x="71.5686" y="137.146" width="2" height="2" rx="1" fill="#D8DDE2"/>
<rect x="83.4966" y="137.146" width="2" height="2" rx="1" fill="#D8DDE2"/>
<rect x="95.4248" y="137.146" width="2.01333" height="2.01333" rx="1.00667" fill="#D8DDE2"/>
<rect x="107.366" y="137.146" width="2" height="2" rx="1" fill="#D8DDE2"/>
<rect x="119.294" y="137.146" width="2" height="2" rx="1" fill="#D8DDE2"/>
<rect x="131.222" y="137.146" width="2" height="2" rx="1" fill="#D8DDE2"/>
<rect x="143.15" y="137.146" width="2" height="2" rx="1" fill="#D8DDE2"/>
<rect x="155.079" y="137.146" width="2" height="2" rx="1" fill="#D8DDE2"/>
<rect x="167.007" y="137.146" width="2" height="2" rx="1" fill="#D8DDE2"/>
<rect x="178.935" y="137.146" width="2" height="2" rx="1" fill="#D8DDE2"/>
<rect x="190.863" y="137.146" width="2" height="2" rx="1" fill="#D8DDE2"/>
<rect x="202.791" y="137.146" width="2" height="2" rx="1" fill="#D8DDE2"/>
<rect x="214.719" y="137.146" width="2" height="2" rx="1" fill="#D8DDE2"/>
<rect x="226.647" y="137.146" width="2" height="2" rx="1" fill="#D8DDE2"/>
<rect x="238.575" y="137.146" width="2" height="2" rx="1" fill="#D8DDE2"/>
<rect x="250.503" y="137.146" width="2" height="2" rx="1" fill="#D8DDE2"/>
<rect x="262.431" y="137.146" width="2" height="2" rx="1" fill="#D8DDE2"/>
<rect x="274.36" y="137.146" width="2" height="2" rx="1" fill="#D8DDE2"/>
<rect x="286.288" y="137.146" width="2" height="2" rx="1" fill="#D8DDE2"/>
<rect x="298.216" y="137.146" width="2" height="2" rx="1" fill="#D8DDE2"/>
<rect x="310.144" y="137.146" width="2" height="2" rx="1" fill="#D8DDE2"/>
<rect x="322.072" y="137.146" width="2" height="2" rx="1" fill="#D8DDE2"/>
<rect x="334" y="137.146" width="2" height="2" rx="1" fill="#D8DDE2"/>
<g filter="url(#filter0_d_63_36373)">
<g clip-path="url(#clip1_63_36373)">
<rect x="113" y="17" width="110" height="110" rx="8" fill="white"/>
</g>
<rect x="113.5" y="17.5" width="109" height="109" rx="7.5" stroke="#3B82F6"/>
</g>
<g opacity="0.8">
<path d="M187.5 46H148.5C144.91 46 142 48.9101 142 52.5V91.5C142 95.0899 144.91 98 148.5 98H187.5C191.09 98 194 95.0899 194 91.5V52.5C194 48.9101 191.09 46 187.5 46Z" stroke="#3B82F6" stroke-width="2" stroke-linecap="round" stroke-linejoin="round"/>
<path d="M174.5 62.25H161.5C159.705 62.25 158.25 63.7051 158.25 65.5V78.5C158.25 80.2949 159.705 81.75 161.5 81.75H174.5C176.295 81.75 177.75 80.2949 177.75 78.5V65.5C177.75 63.7051 176.295 62.25 174.5 62.25Z" stroke="#3B82F6" stroke-width="2" stroke-linecap="round" stroke-linejoin="round"/>
<path d="M177.75 39.5V46" stroke="#3B82F6" stroke-width="2" stroke-linecap="round" stroke-linejoin="round"/>
<path d="M177.75 98V104.5" stroke="#3B82F6" stroke-width="2" stroke-linecap="round" stroke-linejoin="round"/>
<path d="M135.5 81.75H142" stroke="#3B82F6" stroke-width="2" stroke-linecap="round" stroke-linejoin="round"/>
<path d="M135.5 62.25H142" stroke="#3B82F6" stroke-width="2" stroke-linecap="round" stroke-linejoin="round"/>
<path d="M194 81.75H200.5" stroke="#3B82F6" stroke-width="2" stroke-linecap="round" stroke-linejoin="round"/>
<path d="M194 62.25H200.5" stroke="#3B82F6" stroke-width="2" stroke-linecap="round" stroke-linejoin="round"/>
<path d="M158.25 39.5V46" stroke="#3B82F6" stroke-width="2" stroke-linecap="round" stroke-linejoin="round"/>
<path d="M158.25 98V104.5" stroke="#3B82F6" stroke-width="2" stroke-linecap="round" stroke-linejoin="round"/>
</g>
</g>
<defs>
<filter id="filter0_d_63_36373" x="109" y="17" width="118" height="118" filterUnits="userSpaceOnUse" color-interpolation-filters="sRGB">
<feFlood flood-opacity="0" result="BackgroundImageFix"/>
<feColorMatrix in="SourceAlpha" type="matrix" values="0 0 0 0 0 0 0 0 0 0 0 0 0 0 0 0 0 0 127 0" result="hardAlpha"/>
<feOffset dy="4"/>
<feGaussianBlur stdDeviation="2"/>
<feComposite in2="hardAlpha" operator="out"/>
<feColorMatrix type="matrix" values="0 0 0 0 0 0 0 0 0 0 0 0 0 0 0 0 0 0 0.08 0"/>
<feBlend mode="normal" in2="BackgroundImageFix" result="effect1_dropShadow_63_36373"/>
<feBlend mode="normal" in="SourceGraphic" in2="effect1_dropShadow_63_36373" result="shape"/>
</filter>
<clipPath id="clip0_63_36373">
<rect width="336" height="144" fill="white"/>
</clipPath>
<clipPath id="clip1_63_36373">
<rect x="113" y="17" width="110" height="110" rx="8" fill="white"/>
</clipPath>
</defs>
</svg>
