<svg width="336" height="144" viewBox="0 0 336 144" fill="none" xmlns="http://www.w3.org/2000/svg">
<g clip-path="url(#clip0_63_37363)">
<rect width="336" height="144" fill="white"/>
<rect y="5" width="2" height="2" rx="1" fill="#D8DDE2"/>
<rect x="11.928" y="5" width="2" height="2" rx="1" fill="#D8DDE2"/>
<rect x="23.8562" y="5" width="2" height="2" rx="1" fill="#D8DDE2"/>
<rect x="35.7842" y="5" width="2" height="2" rx="1" fill="#D8DDE2"/>
<rect x="47.7124" y="5" width="2" height="2" rx="1" fill="#D8DDE2"/>
<rect x="59.6404" y="5" width="2" height="2" rx="1" fill="#D8DDE2"/>
<rect x="71.5686" y="5" width="2" height="2" rx="1" fill="#D8DDE2"/>
<rect x="83.4966" y="5" width="2" height="2" rx="1" fill="#D8DDE2"/>
<rect x="95.4248" y="5" width="2.01333" height="2.01333" rx="1.00667" fill="#D8DDE2"/>
<rect x="107.366" y="5" width="2" height="2" rx="1" fill="#D8DDE2"/>
<rect x="119.294" y="5" width="2" height="2" rx="1" fill="#D8DDE2"/>
<rect x="131.222" y="5" width="2" height="2" rx="1" fill="#D8DDE2"/>
<rect x="143.15" y="5" width="2" height="2" rx="1" fill="#D8DDE2"/>
<rect x="155.079" y="5" width="2" height="2" rx="1" fill="#D8DDE2"/>
<rect x="167.007" y="5" width="2" height="2" rx="1" fill="#D8DDE2"/>
<rect x="178.935" y="5" width="2" height="2" rx="1" fill="#D8DDE2"/>
<rect x="190.863" y="5" width="2" height="2" rx="1" fill="#D8DDE2"/>
<rect x="202.791" y="5" width="2" height="2" rx="1" fill="#D8DDE2"/>
<rect x="214.719" y="5" width="2" height="2" rx="1" fill="#D8DDE2"/>
<rect x="226.647" y="5" width="2" height="2" rx="1" fill="#D8DDE2"/>
<rect x="238.575" y="5" width="2" height="2" rx="1" fill="#D8DDE2"/>
<rect x="250.503" y="5" width="2" height="2" rx="1" fill="#D8DDE2"/>
<rect x="262.431" y="5" width="2" height="2" rx="1" fill="#D8DDE2"/>
<rect x="274.36" y="5" width="2" height="2" rx="1" fill="#D8DDE2"/>
<rect x="286.288" y="5" width="2" height="2" rx="1" fill="#D8DDE2"/>
<rect x="298.216" y="5" width="2" height="2" rx="1" fill="#D8DDE2"/>
<rect x="310.144" y="5" width="2" height="2" rx="1" fill="#D8DDE2"/>
<rect x="322.072" y="5" width="2" height="2" rx="1" fill="#D8DDE2"/>
<rect x="334" y="5" width="2" height="2" rx="1" fill="#D8DDE2"/>
<rect y="17.0132" width="2" height="2" rx="1" fill="#D8DDE2"/>
<rect x="11.928" y="17.0132" width="2" height="2" rx="1" fill="#D8DDE2"/>
<rect x="23.8562" y="17.0132" width="2" height="2" rx="1" fill="#D8DDE2"/>
<rect x="35.7842" y="17.0132" width="2" height="2" rx="1" fill="#D8DDE2"/>
<rect x="47.7124" y="17.0132" width="2" height="2" rx="1" fill="#D8DDE2"/>
<rect x="59.6404" y="17.0132" width="2" height="2" rx="1" fill="#D8DDE2"/>
<rect x="71.5686" y="17.0132" width="2" height="2" rx="1" fill="#D8DDE2"/>
<rect x="83.4966" y="17.0132" width="2" height="2" rx="1" fill="#D8DDE2"/>
<rect x="95.4248" y="17.0132" width="2.01333" height="2.01333" rx="1.00667" fill="#D8DDE2"/>
<rect x="107.366" y="17.0132" width="2" height="2" rx="1" fill="#D8DDE2"/>
<rect x="119.294" y="17.0132" width="2" height="2" rx="1" fill="#D8DDE2"/>
<rect x="131.222" y="17.0132" width="2" height="2" rx="1" fill="#D8DDE2"/>
<rect x="143.15" y="17.0132" width="2" height="2" rx="1" fill="#D8DDE2"/>
<rect x="155.079" y="17.0132" width="2" height="2" rx="1" fill="#D8DDE2"/>
<rect x="167.007" y="17.0132" width="2" height="2" rx="1" fill="#D8DDE2"/>
<rect x="178.935" y="17.0132" width="2" height="2" rx="1" fill="#D8DDE2"/>
<rect x="190.863" y="17.0132" width="2" height="2" rx="1" fill="#D8DDE2"/>
<rect x="202.791" y="17.0132" width="2" height="2" rx="1" fill="#D8DDE2"/>
<rect x="214.719" y="17.0132" width="2" height="2" rx="1" fill="#D8DDE2"/>
<rect x="226.647" y="17.0132" width="2" height="2" rx="1" fill="#D8DDE2"/>
<rect x="238.575" y="17.0132" width="2" height="2" rx="1" fill="#D8DDE2"/>
<rect x="250.503" y="17.0132" width="2" height="2" rx="1" fill="#D8DDE2"/>
<rect x="262.431" y="17.0132" width="2" height="2" rx="1" fill="#D8DDE2"/>
<rect x="274.36" y="17.0132" width="2" height="2" rx="1" fill="#D8DDE2"/>
<rect x="286.288" y="17.0132" width="2" height="2" rx="1" fill="#D8DDE2"/>
<rect x="298.216" y="17.0132" width="2" height="2" rx="1" fill="#D8DDE2"/>
<rect x="310.144" y="17.0132" width="2" height="2" rx="1" fill="#D8DDE2"/>
<rect x="322.072" y="17.0132" width="2" height="2" rx="1" fill="#D8DDE2"/>
<rect x="334" y="17.0132" width="2" height="2" rx="1" fill="#D8DDE2"/>
<rect y="29.0269" width="2" height="2" rx="1" fill="#D8DDE2"/>
<rect x="11.928" y="29.0269" width="2" height="2" rx="1" fill="#D8DDE2"/>
<rect x="23.8562" y="29.0269" width="2" height="2" rx="1" fill="#D8DDE2"/>
<rect x="35.7842" y="29.0269" width="2" height="2" rx="1" fill="#D8DDE2"/>
<rect x="47.7124" y="29.0269" width="2" height="2" rx="1" fill="#D8DDE2"/>
<rect x="59.6404" y="29.0269" width="2" height="2" rx="1" fill="#D8DDE2"/>
<rect x="71.5686" y="29.0269" width="2" height="2" rx="1" fill="#D8DDE2"/>
<rect x="83.4966" y="29.0269" width="2" height="2" rx="1" fill="#D8DDE2"/>
<rect x="95.4248" y="29.0269" width="2.01333" height="2.01333" rx="1.00667" fill="#D8DDE2"/>
<rect x="107.366" y="29.0269" width="2" height="2" rx="1" fill="#D8DDE2"/>
<rect x="119.294" y="29.0269" width="2" height="2" rx="1" fill="#D8DDE2"/>
<rect x="131.222" y="29.0269" width="2" height="2" rx="1" fill="#D8DDE2"/>
<rect x="143.15" y="29.0269" width="2" height="2" rx="1" fill="#D8DDE2"/>
<rect x="155.079" y="29.0269" width="2" height="2" rx="1" fill="#D8DDE2"/>
<rect x="167.007" y="29.0269" width="2" height="2" rx="1" fill="#D8DDE2"/>
<rect x="178.935" y="29.0269" width="2" height="2" rx="1" fill="#D8DDE2"/>
<rect x="190.863" y="29.0269" width="2" height="2" rx="1" fill="#D8DDE2"/>
<rect x="202.791" y="29.0269" width="2" height="2" rx="1" fill="#D8DDE2"/>
<rect x="214.719" y="29.0269" width="2" height="2" rx="1" fill="#D8DDE2"/>
<rect x="226.647" y="29.0269" width="2" height="2" rx="1" fill="#D8DDE2"/>
<rect x="238.575" y="29.0269" width="2" height="2" rx="1" fill="#D8DDE2"/>
<rect x="250.503" y="29.0269" width="2" height="2" rx="1" fill="#D8DDE2"/>
<rect x="262.431" y="29.0269" width="2" height="2" rx="1" fill="#D8DDE2"/>
<rect x="274.36" y="29.0269" width="2" height="2" rx="1" fill="#D8DDE2"/>
<rect x="286.288" y="29.0269" width="2" height="2" rx="1" fill="#D8DDE2"/>
<rect x="298.216" y="29.0269" width="2" height="2" rx="1" fill="#D8DDE2"/>
<rect x="310.144" y="29.0269" width="2" height="2" rx="1" fill="#D8DDE2"/>
<rect x="322.072" y="29.0269" width="2" height="2" rx="1" fill="#D8DDE2"/>
<rect x="334" y="29.0269" width="2" height="2" rx="1" fill="#D8DDE2"/>
<rect y="41.04" width="2" height="2" rx="1" fill="#D8DDE2"/>
<rect x="11.928" y="41.04" width="2" height="2" rx="1" fill="#D8DDE2"/>
<rect x="23.8562" y="41.04" width="2" height="2" rx="1" fill="#D8DDE2"/>
<rect x="35.7842" y="41.04" width="2" height="2" rx="1" fill="#D8DDE2"/>
<rect x="47.7124" y="41.04" width="2" height="2" rx="1" fill="#D8DDE2"/>
<rect x="59.6404" y="41.04" width="2" height="2" rx="1" fill="#D8DDE2"/>
<rect x="71.5686" y="41.04" width="2" height="2" rx="1" fill="#D8DDE2"/>
<rect x="83.4966" y="41.04" width="2" height="2" rx="1" fill="#D8DDE2"/>
<rect x="95.4248" y="41.04" width="2.01333" height="2.01333" rx="1.00667" fill="#D8DDE2"/>
<rect x="107.366" y="41.04" width="2" height="2" rx="1" fill="#D8DDE2"/>
<rect x="119.294" y="41.04" width="2" height="2" rx="1" fill="#D8DDE2"/>
<rect x="131.222" y="41.04" width="2" height="2" rx="1" fill="#D8DDE2"/>
<rect x="143.15" y="41.04" width="2" height="2" rx="1" fill="#D8DDE2"/>
<rect x="155.079" y="41.04" width="2" height="2" rx="1" fill="#D8DDE2"/>
<rect x="167.007" y="41.04" width="2" height="2" rx="1" fill="#D8DDE2"/>
<rect x="178.935" y="41.04" width="2" height="2" rx="1" fill="#D8DDE2"/>
<rect x="190.863" y="41.04" width="2" height="2" rx="1" fill="#D8DDE2"/>
<rect x="202.791" y="41.04" width="2" height="2" rx="1" fill="#D8DDE2"/>
<rect x="214.719" y="41.04" width="2" height="2" rx="1" fill="#D8DDE2"/>
<rect x="226.647" y="41.04" width="2" height="2" rx="1" fill="#D8DDE2"/>
<rect x="238.575" y="41.04" width="2" height="2" rx="1" fill="#D8DDE2"/>
<rect x="250.503" y="41.04" width="2" height="2" rx="1" fill="#D8DDE2"/>
<rect x="262.431" y="41.04" width="2" height="2" rx="1" fill="#D8DDE2"/>
<rect x="274.36" y="41.04" width="2" height="2" rx="1" fill="#D8DDE2"/>
<rect x="286.288" y="41.04" width="2" height="2" rx="1" fill="#D8DDE2"/>
<rect x="298.216" y="41.04" width="2" height="2" rx="1" fill="#D8DDE2"/>
<rect x="310.144" y="41.04" width="2" height="2" rx="1" fill="#D8DDE2"/>
<rect x="322.072" y="41.04" width="2" height="2" rx="1" fill="#D8DDE2"/>
<rect x="334" y="41.04" width="2" height="2" rx="1" fill="#D8DDE2"/>
<rect y="53.0532" width="2" height="2" rx="1" fill="#D8DDE2"/>
<rect x="11.928" y="53.0532" width="2" height="2" rx="1" fill="#D8DDE2"/>
<rect x="23.8562" y="53.0532" width="2" height="2" rx="1" fill="#D8DDE2"/>
<rect x="35.7842" y="53.0532" width="2" height="2" rx="1" fill="#D8DDE2"/>
<rect x="47.7124" y="53.0532" width="2" height="2" rx="1" fill="#D8DDE2"/>
<rect x="59.6404" y="53.0532" width="2" height="2" rx="1" fill="#D8DDE2"/>
<rect x="71.5686" y="53.0532" width="2" height="2" rx="1" fill="#D8DDE2"/>
<rect x="83.4966" y="53.0532" width="2" height="2" rx="1" fill="#D8DDE2"/>
<rect x="95.4248" y="53.0532" width="2.01333" height="2.01333" rx="1.00667" fill="#D8DDE2"/>
<rect x="107.366" y="53.0532" width="2" height="2" rx="1" fill="#D8DDE2"/>
<rect x="119.294" y="53.0532" width="2" height="2" rx="1" fill="#D8DDE2"/>
<rect x="131.222" y="53.0532" width="2" height="2" rx="1" fill="#D8DDE2"/>
<rect x="143.15" y="53.0532" width="2" height="2" rx="1" fill="#D8DDE2"/>
<rect x="155.079" y="53.0532" width="2" height="2" rx="1" fill="#D8DDE2"/>
<rect x="167.007" y="53.0532" width="2" height="2" rx="1" fill="#D8DDE2"/>
<rect x="178.935" y="53.0532" width="2" height="2" rx="1" fill="#D8DDE2"/>
<rect x="190.863" y="53.0532" width="2" height="2" rx="1" fill="#D8DDE2"/>
<rect x="202.791" y="53.0532" width="2" height="2" rx="1" fill="#D8DDE2"/>
<rect x="214.719" y="53.0532" width="2" height="2" rx="1" fill="#D8DDE2"/>
<rect x="226.647" y="53.0532" width="2" height="2" rx="1" fill="#D8DDE2"/>
<rect x="238.575" y="53.0532" width="2" height="2" rx="1" fill="#D8DDE2"/>
<rect x="250.503" y="53.0532" width="2" height="2" rx="1" fill="#D8DDE2"/>
<rect x="262.431" y="53.0532" width="2" height="2" rx="1" fill="#D8DDE2"/>
<rect x="274.36" y="53.0532" width="2" height="2" rx="1" fill="#D8DDE2"/>
<rect x="286.288" y="53.0532" width="2" height="2" rx="1" fill="#D8DDE2"/>
<rect x="298.216" y="53.0532" width="2" height="2" rx="1" fill="#D8DDE2"/>
<rect x="310.144" y="53.0532" width="2" height="2" rx="1" fill="#D8DDE2"/>
<rect x="322.072" y="53.0532" width="2" height="2" rx="1" fill="#D8DDE2"/>
<rect x="334" y="53.0532" width="2" height="2" rx="1" fill="#D8DDE2"/>
<rect y="65.0669" width="2" height="2" rx="1" fill="#D8DDE2"/>
<rect x="11.928" y="65.0669" width="2" height="2" rx="1" fill="#D8DDE2"/>
<rect x="23.8562" y="65.0669" width="2" height="2" rx="1" fill="#D8DDE2"/>
<rect x="35.7842" y="65.0669" width="2" height="2" rx="1" fill="#D8DDE2"/>
<rect x="47.7124" y="65.0669" width="2" height="2" rx="1" fill="#D8DDE2"/>
<rect x="59.6404" y="65.0669" width="2" height="2" rx="1" fill="#D8DDE2"/>
<rect x="71.5686" y="65.0669" width="2" height="2" rx="1" fill="#D8DDE2"/>
<rect x="83.4966" y="65.0669" width="2" height="2" rx="1" fill="#D8DDE2"/>
<rect x="95.4248" y="65.0669" width="2.01333" height="2.01333" rx="1.00667" fill="#D8DDE2"/>
<rect x="107.366" y="65.0669" width="2" height="2" rx="1" fill="#D8DDE2"/>
<rect x="119.294" y="65.0669" width="2" height="2" rx="1" fill="#D8DDE2"/>
<rect x="131.222" y="65.0669" width="2" height="2" rx="1" fill="#D8DDE2"/>
<rect x="143.15" y="65.0669" width="2" height="2" rx="1" fill="#D8DDE2"/>
<rect x="155.079" y="65.0669" width="2" height="2" rx="1" fill="#D8DDE2"/>
<rect x="167.007" y="65.0669" width="2" height="2" rx="1" fill="#D8DDE2"/>
<rect x="178.935" y="65.0669" width="2" height="2" rx="1" fill="#D8DDE2"/>
<rect x="190.863" y="65.0669" width="2" height="2" rx="1" fill="#D8DDE2"/>
<rect x="202.791" y="65.0669" width="2" height="2" rx="1" fill="#D8DDE2"/>
<rect x="214.719" y="65.0669" width="2" height="2" rx="1" fill="#D8DDE2"/>
<rect x="226.647" y="65.0669" width="2" height="2" rx="1" fill="#D8DDE2"/>
<rect x="238.575" y="65.0669" width="2" height="2" rx="1" fill="#D8DDE2"/>
<rect x="250.503" y="65.0669" width="2" height="2" rx="1" fill="#D8DDE2"/>
<rect x="262.431" y="65.0669" width="2" height="2" rx="1" fill="#D8DDE2"/>
<rect x="274.36" y="65.0669" width="2" height="2" rx="1" fill="#D8DDE2"/>
<rect x="286.288" y="65.0669" width="2" height="2" rx="1" fill="#D8DDE2"/>
<rect x="298.216" y="65.0669" width="2" height="2" rx="1" fill="#D8DDE2"/>
<rect x="310.144" y="65.0669" width="2" height="2" rx="1" fill="#D8DDE2"/>
<rect x="322.072" y="65.0669" width="2" height="2" rx="1" fill="#D8DDE2"/>
<rect x="334" y="65.0669" width="2" height="2" rx="1" fill="#D8DDE2"/>
<rect y="77.0801" width="2" height="2" rx="1" fill="#D8DDE2"/>
<rect x="11.928" y="77.0801" width="2" height="2" rx="1" fill="#D8DDE2"/>
<rect x="23.8562" y="77.0801" width="2" height="2" rx="1" fill="#D8DDE2"/>
<rect x="35.7842" y="77.0801" width="2" height="2" rx="1" fill="#D8DDE2"/>
<rect x="47.7124" y="77.0801" width="2" height="2" rx="1" fill="#D8DDE2"/>
<rect x="59.6404" y="77.0801" width="2" height="2" rx="1" fill="#D8DDE2"/>
<rect x="71.5686" y="77.0801" width="2" height="2" rx="1" fill="#D8DDE2"/>
<rect x="83.4966" y="77.0801" width="2" height="2" rx="1" fill="#D8DDE2"/>
<rect x="95.4248" y="77.0801" width="2.01333" height="2.01333" rx="1.00667" fill="#D8DDE2"/>
<rect x="107.366" y="77.0801" width="2" height="2" rx="1" fill="#D8DDE2"/>
<rect x="119.294" y="77.0801" width="2" height="2" rx="1" fill="#D8DDE2"/>
<rect x="131.222" y="77.0801" width="2" height="2" rx="1" fill="#D8DDE2"/>
<rect x="143.15" y="77.0801" width="2" height="2" rx="1" fill="#D8DDE2"/>
<rect x="155.079" y="77.0801" width="2" height="2" rx="1" fill="#D8DDE2"/>
<rect x="167.007" y="77.0801" width="2" height="2" rx="1" fill="#D8DDE2"/>
<rect x="178.935" y="77.0801" width="2" height="2" rx="1" fill="#D8DDE2"/>
<rect x="190.863" y="77.0801" width="2" height="2" rx="1" fill="#D8DDE2"/>
<rect x="202.791" y="77.0801" width="2" height="2" rx="1" fill="#D8DDE2"/>
<rect x="214.719" y="77.0801" width="2" height="2" rx="1" fill="#D8DDE2"/>
<rect x="226.647" y="77.0801" width="2" height="2" rx="1" fill="#D8DDE2"/>
<rect x="238.575" y="77.0801" width="2" height="2" rx="1" fill="#D8DDE2"/>
<rect x="250.503" y="77.0801" width="2" height="2" rx="1" fill="#D8DDE2"/>
<rect x="262.431" y="77.0801" width="2" height="2" rx="1" fill="#D8DDE2"/>
<rect x="274.36" y="77.0801" width="2" height="2" rx="1" fill="#D8DDE2"/>
<rect x="286.288" y="77.0801" width="2" height="2" rx="1" fill="#D8DDE2"/>
<rect x="298.216" y="77.0801" width="2" height="2" rx="1" fill="#D8DDE2"/>
<rect x="310.144" y="77.0801" width="2" height="2" rx="1" fill="#D8DDE2"/>
<rect x="322.072" y="77.0801" width="2" height="2" rx="1" fill="#D8DDE2"/>
<rect x="334" y="77.0801" width="2" height="2" rx="1" fill="#D8DDE2"/>
<rect y="89.0933" width="2" height="2" rx="1" fill="#D8DDE2"/>
<rect x="11.928" y="89.0933" width="2" height="2" rx="1" fill="#D8DDE2"/>
<rect x="23.8562" y="89.0933" width="2" height="2" rx="1" fill="#D8DDE2"/>
<rect x="35.7842" y="89.0933" width="2" height="2" rx="1" fill="#D8DDE2"/>
<rect x="47.7124" y="89.0933" width="2" height="2" rx="1" fill="#D8DDE2"/>
<rect x="59.6404" y="89.0933" width="2" height="2" rx="1" fill="#D8DDE2"/>
<rect x="71.5686" y="89.0933" width="2" height="2" rx="1" fill="#D8DDE2"/>
<rect x="83.4966" y="89.0933" width="2" height="2" rx="1" fill="#D8DDE2"/>
<rect x="95.4248" y="89.0933" width="2.01333" height="2.01333" rx="1.00667" fill="#D8DDE2"/>
<rect x="107.366" y="89.0933" width="2" height="2" rx="1" fill="#D8DDE2"/>
<rect x="119.294" y="89.0933" width="2" height="2" rx="1" fill="#D8DDE2"/>
<rect x="131.222" y="89.0933" width="2" height="2" rx="1" fill="#D8DDE2"/>
<rect x="143.15" y="89.0933" width="2" height="2" rx="1" fill="#D8DDE2"/>
<rect x="155.079" y="89.0933" width="2" height="2" rx="1" fill="#D8DDE2"/>
<rect x="167.007" y="89.0933" width="2" height="2" rx="1" fill="#D8DDE2"/>
<rect x="178.935" y="89.0933" width="2" height="2" rx="1" fill="#D8DDE2"/>
<rect x="190.863" y="89.0933" width="2" height="2" rx="1" fill="#D8DDE2"/>
<rect x="202.791" y="89.0933" width="2" height="2" rx="1" fill="#D8DDE2"/>
<rect x="214.719" y="89.0933" width="2" height="2" rx="1" fill="#D8DDE2"/>
<rect x="226.647" y="89.0933" width="2" height="2" rx="1" fill="#D8DDE2"/>
<rect x="238.575" y="89.0933" width="2" height="2" rx="1" fill="#D8DDE2"/>
<rect x="250.503" y="89.0933" width="2" height="2" rx="1" fill="#D8DDE2"/>
<rect x="262.431" y="89.0933" width="2" height="2" rx="1" fill="#D8DDE2"/>
<rect x="274.36" y="89.0933" width="2" height="2" rx="1" fill="#D8DDE2"/>
<rect x="286.288" y="89.0933" width="2" height="2" rx="1" fill="#D8DDE2"/>
<rect x="298.216" y="89.0933" width="2" height="2" rx="1" fill="#D8DDE2"/>
<rect x="310.144" y="89.0933" width="2" height="2" rx="1" fill="#D8DDE2"/>
<rect x="322.072" y="89.0933" width="2" height="2" rx="1" fill="#D8DDE2"/>
<rect x="334" y="89.0933" width="2" height="2" rx="1" fill="#D8DDE2"/>
<rect y="101.106" width="2" height="2" rx="1" fill="#D8DDE2"/>
<rect x="11.928" y="101.106" width="2" height="2" rx="1" fill="#D8DDE2"/>
<rect x="23.8562" y="101.106" width="2" height="2" rx="1" fill="#D8DDE2"/>
<rect x="35.7842" y="101.106" width="2" height="2" rx="1" fill="#D8DDE2"/>
<rect x="47.7124" y="101.106" width="2" height="2" rx="1" fill="#D8DDE2"/>
<rect x="59.6404" y="101.106" width="2" height="2" rx="1" fill="#D8DDE2"/>
<rect x="71.5686" y="101.106" width="2" height="2" rx="1" fill="#D8DDE2"/>
<rect x="83.4966" y="101.106" width="2" height="2" rx="1" fill="#D8DDE2"/>
<rect x="95.4248" y="101.106" width="2.01333" height="2.01333" rx="1.00667" fill="#D8DDE2"/>
<rect x="107.366" y="101.106" width="2" height="2" rx="1" fill="#D8DDE2"/>
<rect x="119.294" y="101.106" width="2" height="2" rx="1" fill="#D8DDE2"/>
<rect x="131.222" y="101.106" width="2" height="2" rx="1" fill="#D8DDE2"/>
<rect x="143.15" y="101.106" width="2" height="2" rx="1" fill="#D8DDE2"/>
<rect x="155.079" y="101.106" width="2" height="2" rx="1" fill="#D8DDE2"/>
<rect x="167.007" y="101.106" width="2" height="2" rx="1" fill="#D8DDE2"/>
<rect x="178.935" y="101.106" width="2" height="2" rx="1" fill="#D8DDE2"/>
<rect x="190.863" y="101.106" width="2" height="2" rx="1" fill="#D8DDE2"/>
<rect x="202.791" y="101.106" width="2" height="2" rx="1" fill="#D8DDE2"/>
<rect x="214.719" y="101.106" width="2" height="2" rx="1" fill="#D8DDE2"/>
<rect x="226.647" y="101.106" width="2" height="2" rx="1" fill="#D8DDE2"/>
<rect x="238.575" y="101.106" width="2" height="2" rx="1" fill="#D8DDE2"/>
<rect x="250.503" y="101.106" width="2" height="2" rx="1" fill="#D8DDE2"/>
<rect x="262.431" y="101.106" width="2" height="2" rx="1" fill="#D8DDE2"/>
<rect x="274.36" y="101.106" width="2" height="2" rx="1" fill="#D8DDE2"/>
<rect x="286.288" y="101.106" width="2" height="2" rx="1" fill="#D8DDE2"/>
<rect x="298.216" y="101.106" width="2" height="2" rx="1" fill="#D8DDE2"/>
<rect x="310.144" y="101.106" width="2" height="2" rx="1" fill="#D8DDE2"/>
<rect x="322.072" y="101.106" width="2" height="2" rx="1" fill="#D8DDE2"/>
<rect x="334" y="101.106" width="2" height="2" rx="1" fill="#D8DDE2"/>
<rect y="113.12" width="2" height="2" rx="1" fill="#D8DDE2"/>
<rect x="11.928" y="113.12" width="2" height="2" rx="1" fill="#D8DDE2"/>
<rect x="23.8562" y="113.12" width="2" height="2" rx="1" fill="#D8DDE2"/>
<rect x="35.7842" y="113.12" width="2" height="2" rx="1" fill="#D8DDE2"/>
<rect x="47.7124" y="113.12" width="2" height="2" rx="1" fill="#D8DDE2"/>
<rect x="59.6404" y="113.12" width="2" height="2" rx="1" fill="#D8DDE2"/>
<rect x="71.5686" y="113.12" width="2" height="2" rx="1" fill="#D8DDE2"/>
<rect x="83.4966" y="113.12" width="2" height="2" rx="1" fill="#D8DDE2"/>
<rect x="95.4248" y="113.12" width="2.01333" height="2.01333" rx="1.00667" fill="#D8DDE2"/>
<rect x="107.366" y="113.12" width="2" height="2" rx="1" fill="#D8DDE2"/>
<rect x="119.294" y="113.12" width="2" height="2" rx="1" fill="#D8DDE2"/>
<rect x="131.222" y="113.12" width="2" height="2" rx="1" fill="#D8DDE2"/>
<rect x="143.15" y="113.12" width="2" height="2" rx="1" fill="#D8DDE2"/>
<rect x="155.079" y="113.12" width="2" height="2" rx="1" fill="#D8DDE2"/>
<rect x="167.007" y="113.12" width="2" height="2" rx="1" fill="#D8DDE2"/>
<rect x="178.935" y="113.12" width="2" height="2" rx="1" fill="#D8DDE2"/>
<rect x="190.863" y="113.12" width="2" height="2" rx="1" fill="#D8DDE2"/>
<rect x="202.791" y="113.12" width="2" height="2" rx="1" fill="#D8DDE2"/>
<rect x="214.719" y="113.12" width="2" height="2" rx="1" fill="#D8DDE2"/>
<rect x="226.647" y="113.12" width="2" height="2" rx="1" fill="#D8DDE2"/>
<rect x="238.575" y="113.12" width="2" height="2" rx="1" fill="#D8DDE2"/>
<rect x="250.503" y="113.12" width="2" height="2" rx="1" fill="#D8DDE2"/>
<rect x="262.431" y="113.12" width="2" height="2" rx="1" fill="#D8DDE2"/>
<rect x="274.36" y="113.12" width="2" height="2" rx="1" fill="#D8DDE2"/>
<rect x="286.288" y="113.12" width="2" height="2" rx="1" fill="#D8DDE2"/>
<rect x="298.216" y="113.12" width="2" height="2" rx="1" fill="#D8DDE2"/>
<rect x="310.144" y="113.12" width="2" height="2" rx="1" fill="#D8DDE2"/>
<rect x="322.072" y="113.12" width="2" height="2" rx="1" fill="#D8DDE2"/>
<rect x="334" y="113.12" width="2" height="2" rx="1" fill="#D8DDE2"/>
<rect y="125.133" width="2" height="2" rx="1" fill="#D8DDE2"/>
<rect x="11.928" y="125.133" width="2" height="2" rx="1" fill="#D8DDE2"/>
<rect x="23.8562" y="125.133" width="2" height="2" rx="1" fill="#D8DDE2"/>
<rect x="35.7842" y="125.133" width="2" height="2" rx="1" fill="#D8DDE2"/>
<rect x="47.7124" y="125.133" width="2" height="2" rx="1" fill="#D8DDE2"/>
<rect x="59.6404" y="125.133" width="2" height="2" rx="1" fill="#D8DDE2"/>
<rect x="71.5686" y="125.133" width="2" height="2" rx="1" fill="#D8DDE2"/>
<rect x="83.4966" y="125.133" width="2" height="2" rx="1" fill="#D8DDE2"/>
<rect x="95.4248" y="125.133" width="2.01333" height="2.01333" rx="1.00667" fill="#D8DDE2"/>
<rect x="107.366" y="125.133" width="2" height="2" rx="1" fill="#D8DDE2"/>
<rect x="119.294" y="125.133" width="2" height="2" rx="1" fill="#D8DDE2"/>
<rect x="131.222" y="125.133" width="2" height="2" rx="1" fill="#D8DDE2"/>
<rect x="143.15" y="125.133" width="2" height="2" rx="1" fill="#D8DDE2"/>
<rect x="155.079" y="125.133" width="2" height="2" rx="1" fill="#D8DDE2"/>
<rect x="167.007" y="125.133" width="2" height="2" rx="1" fill="#D8DDE2"/>
<rect x="178.935" y="125.133" width="2" height="2" rx="1" fill="#D8DDE2"/>
<rect x="190.863" y="125.133" width="2" height="2" rx="1" fill="#D8DDE2"/>
<rect x="202.791" y="125.133" width="2" height="2" rx="1" fill="#D8DDE2"/>
<rect x="214.719" y="125.133" width="2" height="2" rx="1" fill="#D8DDE2"/>
<rect x="226.647" y="125.133" width="2" height="2" rx="1" fill="#D8DDE2"/>
<rect x="238.575" y="125.133" width="2" height="2" rx="1" fill="#D8DDE2"/>
<rect x="250.503" y="125.133" width="2" height="2" rx="1" fill="#D8DDE2"/>
<rect x="262.431" y="125.133" width="2" height="2" rx="1" fill="#D8DDE2"/>
<rect x="274.36" y="125.133" width="2" height="2" rx="1" fill="#D8DDE2"/>
<rect x="286.288" y="125.133" width="2" height="2" rx="1" fill="#D8DDE2"/>
<rect x="298.216" y="125.133" width="2" height="2" rx="1" fill="#D8DDE2"/>
<rect x="310.144" y="125.133" width="2" height="2" rx="1" fill="#D8DDE2"/>
<rect x="322.072" y="125.133" width="2" height="2" rx="1" fill="#D8DDE2"/>
<rect x="334" y="125.133" width="2" height="2" rx="1" fill="#D8DDE2"/>
<rect y="137.146" width="2" height="2" rx="1" fill="#D8DDE2"/>
<rect x="11.928" y="137.146" width="2" height="2" rx="1" fill="#D8DDE2"/>
<rect x="23.8562" y="137.146" width="2" height="2" rx="1" fill="#D8DDE2"/>
<rect x="35.7842" y="137.146" width="2" height="2" rx="1" fill="#D8DDE2"/>
<rect x="47.7124" y="137.146" width="2" height="2" rx="1" fill="#D8DDE2"/>
<rect x="59.6404" y="137.146" width="2" height="2" rx="1" fill="#D8DDE2"/>
<rect x="71.5686" y="137.146" width="2" height="2" rx="1" fill="#D8DDE2"/>
<rect x="83.4966" y="137.146" width="2" height="2" rx="1" fill="#D8DDE2"/>
<rect x="95.4248" y="137.146" width="2.01333" height="2.01333" rx="1.00667" fill="#D8DDE2"/>
<rect x="107.366" y="137.146" width="2" height="2" rx="1" fill="#D8DDE2"/>
<rect x="119.294" y="137.146" width="2" height="2" rx="1" fill="#D8DDE2"/>
<rect x="131.222" y="137.146" width="2" height="2" rx="1" fill="#D8DDE2"/>
<rect x="143.15" y="137.146" width="2" height="2" rx="1" fill="#D8DDE2"/>
<rect x="155.079" y="137.146" width="2" height="2" rx="1" fill="#D8DDE2"/>
<rect x="167.007" y="137.146" width="2" height="2" rx="1" fill="#D8DDE2"/>
<rect x="178.935" y="137.146" width="2" height="2" rx="1" fill="#D8DDE2"/>
<rect x="190.863" y="137.146" width="2" height="2" rx="1" fill="#D8DDE2"/>
<rect x="202.791" y="137.146" width="2" height="2" rx="1" fill="#D8DDE2"/>
<rect x="214.719" y="137.146" width="2" height="2" rx="1" fill="#D8DDE2"/>
<rect x="226.647" y="137.146" width="2" height="2" rx="1" fill="#D8DDE2"/>
<rect x="238.575" y="137.146" width="2" height="2" rx="1" fill="#D8DDE2"/>
<rect x="250.503" y="137.146" width="2" height="2" rx="1" fill="#D8DDE2"/>
<rect x="262.431" y="137.146" width="2" height="2" rx="1" fill="#D8DDE2"/>
<rect x="274.36" y="137.146" width="2" height="2" rx="1" fill="#D8DDE2"/>
<rect x="286.288" y="137.146" width="2" height="2" rx="1" fill="#D8DDE2"/>
<rect x="298.216" y="137.146" width="2" height="2" rx="1" fill="#D8DDE2"/>
<rect x="310.144" y="137.146" width="2" height="2" rx="1" fill="#D8DDE2"/>
<rect x="322.072" y="137.146" width="2" height="2" rx="1" fill="#D8DDE2"/>
<rect x="334" y="137.146" width="2" height="2" rx="1" fill="#D8DDE2"/>
<g filter="url(#filter0_d_63_37363)">
<g clip-path="url(#clip1_63_37363)">
<rect x="113" y="17" width="110" height="110" rx="8" fill="white"/>
</g>
<rect x="113.5" y="17.5" width="109" height="109" rx="7.5" stroke="#7C3AED"/>
</g>
<path d="M158.25 42.75H142C140.205 42.75 138.75 44.2051 138.75 46V68.75C138.75 70.5449 140.205 72 142 72H158.25C160.045 72 161.5 70.5449 161.5 68.75V46C161.5 44.2051 160.045 42.75 158.25 42.75Z" stroke="#7C3AED" stroke-width="2" stroke-linecap="round" stroke-linejoin="round"/>
<path d="M194 42.75H177.75C175.955 42.75 174.5 44.2051 174.5 46V55.75C174.5 57.5449 175.955 59 177.75 59H194C195.795 59 197.25 57.5449 197.25 55.75V46C197.25 44.2051 195.795 42.75 194 42.75Z" stroke="#7C3AED" stroke-width="2" stroke-linecap="round" stroke-linejoin="round"/>
<path d="M194 72H177.75C175.955 72 174.5 73.4551 174.5 75.25V98C174.5 99.7949 175.955 101.25 177.75 101.25H194C195.795 101.25 197.25 99.7949 197.25 98V75.25C197.25 73.4551 195.795 72 194 72Z" stroke="#7C3AED" stroke-width="2" stroke-linecap="round" stroke-linejoin="round"/>
<path d="M158.25 85H142C140.205 85 138.75 86.4551 138.75 88.25V98C138.75 99.7949 140.205 101.25 142 101.25H158.25C160.045 101.25 161.5 99.7949 161.5 98V88.25C161.5 86.4551 160.045 85 158.25 85Z" stroke="#7C3AED" stroke-width="2" stroke-linecap="round" stroke-linejoin="round"/>
</g>
<defs>
<filter id="filter0_d_63_37363" x="109" y="17" width="118" height="118" filterUnits="userSpaceOnUse" color-interpolation-filters="sRGB">
<feFlood flood-opacity="0" result="BackgroundImageFix"/>
<feColorMatrix in="SourceAlpha" type="matrix" values="0 0 0 0 0 0 0 0 0 0 0 0 0 0 0 0 0 0 127 0" result="hardAlpha"/>
<feOffset dy="4"/>
<feGaussianBlur stdDeviation="2"/>
<feComposite in2="hardAlpha" operator="out"/>
<feColorMatrix type="matrix" values="0 0 0 0 0 0 0 0 0 0 0 0 0 0 0 0 0 0 0.08 0"/>
<feBlend mode="normal" in2="BackgroundImageFix" result="effect1_dropShadow_63_37363"/>
<feBlend mode="normal" in="SourceGraphic" in2="effect1_dropShadow_63_37363" result="shape"/>
</filter>
<clipPath id="clip0_63_37363">
<rect width="336" height="144" fill="white"/>
</clipPath>
<clipPath id="clip1_63_37363">
<rect x="113" y="17" width="110" height="110" rx="8" fill="white"/>
</clipPath>
</defs>
</svg>
